<?xml version="1.0" encoding="utf-8"?>
<!-- Generator: Adobe Illustrator 21.0.0, SVG Export Plug-In . SVG Version: 6.00 Build 0)  -->
<svg version="1.1"
	 id="svg2" inkscape:export-filename="C:\Users\ad63937\Dropbox\Skoldator, Volvo style\togethernetpath.png" inkscape:export-xdpi="290.11765" inkscape:export-ydpi="290.11765" inkscape:version="0.48.5 r10040" sodipodi:docname="togethernetpath.svg" xmlns:cc="http://creativecommons.org/ns#" xmlns:dc="http://purl.org/dc/elements/1.1/" xmlns:inkscape="http://www.inkscape.org/namespaces/inkscape" xmlns:rdf="http://www.w3.org/1999/02/22-rdf-syntax-ns#" xmlns:sodipodi="http://sodipodi.sourceforge.net/DTD/sodipodi-0.dtd" xmlns:svg="http://www.w3.org/2000/svg"
	 xmlns="http://www.w3.org/2000/svg" xmlns:xlink="http://www.w3.org/1999/xlink" x="0px" y="0px" viewBox="0 0 274.1 60"
	 style="enable-background:new 0 0 274.1 60;" xml:space="preserve">
<style type="text/css">
	.st0{fill:#FFB04A;}
	.st1{fill:#FFFFFF;}
</style>
<sodipodi:namedview  bordercolor="#666666" borderopacity="1.0" fit-margin-bottom="0" fit-margin-left="0" fit-margin-right="0" fit-margin-top="0" id="base" inkscape:bbox-nodes="true" inkscape:current-layer="layer1" inkscape:cx="258.34732" inkscape:cy="-18.322349" inkscape:document-units="px" inkscape:pageopacity="0.0" inkscape:pageshadow="2" inkscape:snap-bbox="true" inkscape:snap-page="true" inkscape:window-height="613" inkscape:window-maximized="0" inkscape:window-width="919" inkscape:window-x="27" inkscape:window-y="25" inkscape:zoom="1" pagecolor="#ffffff" showgrid="false">
	</sodipodi:namedview>
<g id="layer1" transform="translate(-185.35681,-423.52377)" inkscape:groupmode="layer" inkscape:label="Layer 1">
	<g id="text2989" transform="matrix(0.80609937,0,0,0.80609937,62.512342,87.938545)">
		<path id="path3796" inkscape:connector-curvature="0" class="st0" d="M186.4,470.9h-7.6v-30.3h-11.4V433h30.3v7.6h-11.4V470.9z"/>
		<path id="path3798" inkscape:connector-curvature="0" class="st0" d="M228.4,456.5c0,2.1-0.4,4.1-1.1,5.9
			c-0.8,1.8-1.8,3.4-3.1,4.7c-1.3,1.3-2.8,2.4-4.6,3.1c-1.8,0.8-3.6,1.2-5.6,1.2c-2,0-3.9-0.4-5.6-1.2c-1.8-0.8-3.3-1.8-4.6-3.1
			c-1.3-1.3-2.3-2.9-3.1-4.7c-0.8-1.8-1.1-3.8-1.1-5.9c0-2.2,0.4-4.1,1.1-6c0.8-1.8,1.8-3.4,3.1-4.7c1.3-1.3,2.8-2.4,4.6-3.1
			c1.8-0.8,3.6-1.1,5.6-1.1c2,0,3.9,0.4,5.6,1.1c1.8,0.7,3.3,1.7,4.6,3c1.3,1.3,2.3,2.9,3.1,4.7C228,452.2,228.4,454.2,228.4,456.5z
			 M221.1,456.5c0-1.2-0.2-2.2-0.6-3.2c-0.4-0.9-0.9-1.8-1.5-2.4c-0.7-0.7-1.4-1.2-2.3-1.6c-0.9-0.4-1.8-0.5-2.8-0.5
			c-1,0-1.9,0.2-2.8,0.5c-0.9,0.4-1.6,0.9-2.3,1.6c-0.6,0.7-1.2,1.5-1.5,2.4c-0.4,0.9-0.6,2-0.6,3.2c0,1.1,0.2,2.1,0.6,3
			c0.4,0.9,0.9,1.7,1.5,2.4c0.6,0.7,1.4,1.2,2.3,1.6c0.9,0.4,1.8,0.6,2.8,0.6c1,0,1.9-0.2,2.8-0.6c0.9-0.4,1.6-0.9,2.3-1.6
			c0.7-0.7,1.2-1.5,1.5-2.4C220.9,458.7,221.1,457.6,221.1,456.5z"/>
		<path id="path3800" inkscape:connector-curvature="0" class="st0" d="M252.5,456.5c0-1-0.2-1.9-0.6-2.9c-0.4-0.9-0.9-1.7-1.5-2.5
			c-0.7-0.7-1.4-1.3-2.3-1.7c-0.9-0.4-1.8-0.6-2.8-0.6c-1,0-1.9,0.2-2.8,0.5c-0.9,0.3-1.6,0.8-2.3,1.5c-0.6,0.7-1.2,1.5-1.5,2.4
			c-0.4,1-0.6,2.1-0.6,3.3c0,1.2,0.2,2.2,0.6,3.2c0.4,0.9,0.9,1.7,1.5,2.4c0.6,0.7,1.4,1.2,2.3,1.5c0.9,0.4,1.8,0.5,2.8,0.5
			c1,0,1.9-0.2,2.8-0.6c0.9-0.4,1.6-1,2.3-1.7c0.7-0.7,1.2-1.5,1.5-2.5C252.4,458.4,252.5,457.5,252.5,456.5L252.5,456.5z
			 M259.8,467.3c0,2-0.4,3.9-1.1,5.6c-0.8,1.7-1.8,3.3-3.1,4.6c-1.3,1.3-2.8,2.3-4.6,3.1c-1.8,0.8-3.6,1.1-5.6,1.1l-3.6-0.1v-7.2
			l3.6,0.1c1.1,0,2.1-0.1,2.9-0.4c0.8-0.3,1.5-0.7,2-1.2c0.5-0.5,1-1.1,1.3-1.7c0.3-0.7,0.6-1.3,0.8-2.1c-0.3,0.5-0.7,0.8-1.2,1.1
			c-0.5,0.3-1.1,0.5-1.8,0.7c-0.6,0.2-1.3,0.3-2,0.4c-0.7,0.1-1.3,0.1-1.9,0.1c-2,0-3.9-0.3-5.6-1c-1.8-0.7-3.3-1.7-4.6-2.9
			c-1.3-1.3-2.3-2.8-3.1-4.7c-0.8-1.9-1.1-3.9-1.1-6.3c0-2.1,0.4-4.1,1.1-6s1.8-3.4,3.1-4.8c1.3-1.3,2.8-2.4,4.6-3.1
			c1.8-0.8,3.6-1.1,5.6-1.1c0.9,0,1.8,0.1,2.7,0.3c0.9,0.2,1.8,0.5,2.6,1c0.8,0.4,1.7,0.9,2.4,1.4c0.8,0.5,1.5,1.1,2.2,1.8l2.8-3.4
			h1.7L259.8,467.3z"/>
		<path id="path3802" inkscape:connector-curvature="0" class="st1" d="M276.6,464c0.3,0.1,0.6,0.1,0.8,0.2c0.3,0,0.6,0,0.8,0
			c0.7,0,1.4-0.1,2-0.3c0.7-0.2,1.3-0.5,1.8-0.8c0.6-0.4,1.1-0.8,1.5-1.3c0.4-0.5,0.8-1.1,1.1-1.7l5.3,5.3c-0.7,1-1.4,1.8-2.3,2.6
			c-0.9,0.8-1.8,1.4-2.8,1.9c-1,0.5-2.1,0.9-3.2,1.2c-1.1,0.3-2.3,0.4-3.5,0.4c-2,0-3.9-0.4-5.6-1.1c-1.8-0.7-3.3-1.8-4.6-3.1
			c-1.3-1.3-2.3-2.9-3.1-4.7c-0.8-1.8-1.1-3.8-1.1-6c0-2.2,0.4-4.3,1.1-6.1s1.8-3.4,3.1-4.7c1.3-1.3,2.8-2.3,4.6-3
			c1.8-0.7,3.6-1.1,5.6-1.1c1.2,0,2.3,0.1,3.5,0.4c1.1,0.3,2.2,0.7,3.2,1.2c1,0.5,2,1.2,2.8,1.9c0.9,0.8,1.7,1.6,2.3,2.6L276.6,464z
			 M280.3,449.1c-0.3-0.1-0.7-0.2-1-0.2c-0.3,0-0.7-0.1-1-0.1c-1,0-1.9,0.2-2.8,0.5c-0.9,0.4-1.6,0.9-2.3,1.5
			c-0.6,0.7-1.2,1.5-1.5,2.4c-0.4,0.9-0.6,2-0.6,3.2c0,0.3,0,0.6,0,0.9c0,0.3,0.1,0.7,0.1,1c0.1,0.3,0.1,0.7,0.2,1
			c0.1,0.3,0.2,0.6,0.3,0.8L280.3,449.1z"/>
		<path id="path3804" inkscape:connector-curvature="0" class="st1" d="M308,470.9c-1.7,0-3.4-0.3-4.9-1c-1.5-0.7-2.9-1.6-4-2.7
			c-1.2-1.2-2.1-2.5-2.7-4c-0.7-1.5-1-3.2-1-4.9v-8.4h-3.5v-7.2h3.5v-11.3h7.2v11.3h10.9v7.2h-10.9v8.4c0,0.8,0.1,1.5,0.4,2.1
			c0.3,0.7,0.7,1.2,1.2,1.7c0.5,0.5,1.1,0.9,1.7,1.2c0.7,0.3,1.4,0.4,2.1,0.4h5.5v7.2H308z"/>
		<path id="path3806" inkscape:connector-curvature="0" class="st1" d="M324.7,470.9h-7.2v-39.6h7.2v12.5c0.9-0.7,1.8-1.1,2.7-1.4
			c0.9-0.3,1.9-0.4,2.8-0.4c1.7,0,3.4,0.3,4.9,1c1.5,0.7,2.9,1.6,4,2.7c1.1,1.2,2,2.5,2.7,4c0.7,1.5,1,3.2,1,4.9v16.2h-7.3v-16.2
			h0.1c0-0.7-0.1-1.4-0.4-2.1c-0.3-0.7-0.7-1.2-1.2-1.7c-0.5-0.5-1.1-0.9-1.7-1.2c-0.7-0.3-1.3-0.4-2.1-0.4c-0.8,0-1.5,0.1-2.1,0.4
			c-0.7,0.3-1.3,0.7-1.7,1.2c-0.5,0.5-0.9,1.1-1.2,1.7c-0.3,0.7-0.4,1.4-0.4,2.1V470.9z"/>
		<path id="path3808" inkscape:connector-curvature="0" class="st1" d="M359.2,464c0.3,0.1,0.6,0.1,0.8,0.2c0.3,0,0.6,0,0.8,0
			c0.7,0,1.4-0.1,2-0.3c0.7-0.2,1.3-0.5,1.8-0.8c0.6-0.4,1.1-0.8,1.5-1.3c0.4-0.5,0.8-1.1,1.1-1.7l5.3,5.3c-0.7,1-1.4,1.8-2.3,2.6
			c-0.9,0.8-1.8,1.4-2.8,1.9c-1,0.5-2.1,0.9-3.2,1.2c-1.1,0.3-2.3,0.4-3.5,0.4c-2,0-3.9-0.4-5.6-1.1c-1.8-0.7-3.3-1.8-4.6-3.1
			s-2.3-2.9-3.1-4.7s-1.1-3.8-1.1-6c0-2.2,0.4-4.3,1.1-6.1s1.8-3.4,3.1-4.7c1.3-1.3,2.8-2.3,4.6-3c1.8-0.7,3.6-1.1,5.6-1.1
			c1.2,0,2.3,0.1,3.5,0.4c1.1,0.3,2.2,0.7,3.2,1.2c1,0.5,2,1.2,2.8,1.9c0.9,0.8,1.7,1.6,2.3,2.6L359.2,464z M362.9,449.1
			c-0.3-0.1-0.7-0.2-1-0.2c-0.3,0-0.7-0.1-1-0.1c-1,0-1.9,0.2-2.8,0.5c-0.9,0.4-1.6,0.9-2.3,1.5c-0.6,0.7-1.2,1.5-1.5,2.4
			c-0.4,0.9-0.6,2-0.6,3.2c0,0.3,0,0.6,0,0.9c0,0.3,0.1,0.7,0.1,1c0.1,0.3,0.1,0.7,0.2,1c0.1,0.3,0.2,0.6,0.3,0.8L362.9,449.1z"/>
		<path id="path3810" inkscape:connector-curvature="0" class="st1" d="M383.6,470.9h-7.2v-28.3h1.7l2.4,3.4c1.2-1.1,2.5-1.9,4-2.4
			c1.5-0.6,3-0.9,4.6-0.9h6.4v7.2h-6.4c-0.8,0-1.5,0.1-2.1,0.4c-0.7,0.3-1.3,0.7-1.7,1.2c-0.5,0.5-0.9,1.1-1.2,1.7
			c-0.3,0.7-0.4,1.4-0.4,2.1V470.9z"/>
		<path id="path3812" inkscape:connector-curvature="0" class="st1" d="M406,470.9h-7.2v-28.3h1.7l2.4,2.8c1.2-1.1,2.5-1.9,4-2.4
			c1.5-0.6,3-0.9,4.6-0.9c1.7,0,3.4,0.3,4.9,1c1.5,0.7,2.9,1.6,4,2.7c1.1,1.2,2,2.5,2.7,4c0.7,1.5,1,3.2,1,4.9v16.2h-7.2v-16.2
			c0-0.7-0.1-1.4-0.4-2.1c-0.3-0.7-0.7-1.2-1.2-1.7c-0.5-0.5-1.1-0.9-1.7-1.2c-0.7-0.3-1.3-0.4-2.1-0.4c-0.8,0-1.5,0.1-2.1,0.4
			c-0.7,0.3-1.3,0.7-1.7,1.2c-0.5,0.5-0.9,1.1-1.2,1.7c-0.3,0.7-0.4,1.4-0.4,2.1V470.9z"/>
		<path id="path3814" inkscape:connector-curvature="0" class="st1" d="M440.5,464c0.3,0.1,0.6,0.1,0.8,0.2c0.3,0,0.6,0,0.8,0
			c0.7,0,1.4-0.1,2-0.3c0.7-0.2,1.3-0.5,1.8-0.8c0.6-0.4,1.1-0.8,1.5-1.3c0.4-0.5,0.8-1.1,1.1-1.7l5.3,5.3c-0.7,1-1.4,1.8-2.3,2.6
			c-0.9,0.8-1.8,1.4-2.8,1.9c-1,0.5-2.1,0.9-3.2,1.2c-1.1,0.3-2.3,0.4-3.5,0.4c-2,0-3.9-0.4-5.6-1.1c-1.8-0.7-3.3-1.8-4.6-3.1
			s-2.3-2.9-3.1-4.7s-1.1-3.8-1.1-6c0-2.2,0.4-4.3,1.1-6.1s1.8-3.4,3.1-4.7c1.3-1.3,2.8-2.3,4.6-3c1.8-0.7,3.6-1.1,5.6-1.1
			c1.2,0,2.3,0.1,3.5,0.4c1.1,0.3,2.2,0.7,3.2,1.2c1,0.5,2,1.2,2.8,1.9c0.9,0.8,1.7,1.6,2.3,2.6L440.5,464z M444.2,449.1
			c-0.3-0.1-0.7-0.2-1-0.2c-0.3,0-0.7-0.1-1-0.1c-1,0-1.9,0.2-2.8,0.5c-0.9,0.4-1.6,0.9-2.3,1.5c-0.6,0.7-1.2,1.5-1.5,2.4
			c-0.4,0.9-0.6,2-0.6,3.2c0,0.3,0,0.6,0,0.9c0,0.3,0.1,0.7,0.1,1c0.1,0.3,0.1,0.7,0.2,1c0.1,0.3,0.2,0.6,0.3,0.8L444.2,449.1z"/>
		<path id="path3816" inkscape:connector-curvature="0" class="st1" d="M471.9,470.9c-1.7,0-3.4-0.3-4.9-1c-1.5-0.7-2.9-1.6-4-2.7
			c-1.2-1.2-2.1-2.5-2.7-4s-1-3.2-1-4.9v-8.4h-3.5v-7.2h3.5v-11.3h7.2v11.3h10.9v7.2h-10.9v8.4c0,0.8,0.1,1.5,0.4,2.1
			c0.3,0.7,0.7,1.2,1.2,1.7c0.5,0.5,1.1,0.9,1.7,1.2c0.7,0.3,1.4,0.4,2.1,0.4h5.5v7.2H471.9z"/>
	</g>
</g>
</svg>
